PathFileType	4	(X/Y/Z)	../Python\walking\Walking12\task.trc
DataRate	CameraRate	NumFrames	NumMarkers	Units	OrigDataRate	OrigDataStartFrame	OrigNumFrames
200.000000	200.000000	4	30	mm	200.000000	372	426
Frame#	Time	CLAV			STRN			RASI			LASI			RTH1			RTH2			RTH3			RTB1			RTB2			RTB3			RD5M			RTOE			LTH1			LTH3			LTB1			LTB2			LTB3			LTOE			LD5M			LTH2			RHEE			T10			PE03			RPSI			PE02			LPSI			PE01			C7			RBAK			LHEE			
		X1	Y1	Z1	X2	Y2	Z2	X3	Y3	Z3	X4	Y4	Z4	X5	Y5	Z5	X6	Y6	Z6	X7	Y7	Z7	X8	Y8	Z8	X9	Y9	Z9	X10	Y10	Z10	X11	Y11	Z11	X12	Y12	Z12	X13	Y13	Z13	X14	Y14	Z14	X15	Y15	Z15	X16	Y16	Z16	X17	Y17	Z17	X18	Y18	Z18	X19	Y19	Z19	X20	Y20	Z20	X21	Y21	Z21	X22	Y22	Z22	X23	Y23	Z23	X24	Y24	Z24	X25	Y25	Z25	X26	Y26	Z26	X27	Y27	Z27	X28	Y28	Z28	X29	Y29	Z29	X30	Y30	Z30	

373	1.86	2696.375732421876	1398.741333007813	168.2973785400391	2757.458007812501	1207.904174804688	190.1758728027344	2716.697998046876	994.2822265625005	329.9085388183595	2765.223632812501	990.0676879882817	56.1696586608887	2608.982666015626	740.4915161132815	351.4921264648439	2548.139892578126	735.6251220703127	338.9481201171876	2555.179687500001	687.6281738281252	324.5550537109376	2431.169921875001	370.4158020019532	262.0971984863282	2372.431640625001	353.0177307128907	255.5481109619142	2387.081054687501	305.4359741210939	247.6031341552736	2312.267578125001	12.38607120513917	221.7178802490236	2377.331542968751	23.57243537902833	183.1690521240235	2762.489013671876	683.2254028320315	21.90188789367676	2807.639648437501	621.0596923828127	40.06040573120119	2856.333251953126	334.8833007812501	74.53262329101565	2839.656494140626	290.7705688476564	89.80640411376956	2897.245849609376	268.844451904297	86.28472137451175	3096.861083984377	37.28848266601564	162.5905456542969	3060.131347656251	14.98069000244141	120.892692565918	2749.207519531251	638.7623291015627	41.52761459350587	2188.304687500001	110.8273086547852	142.1679382324219	2530.237548828126	1224.620483398438	155.4048156738282	2571.869873046876	1025.10986328125	136.7335510253907	2569.118896484376	1037.650146484375	210.9661560058595	2567.758300781251	1025.45849609375	187.3760223388672	2580.321533203126	1036.469360351563	111.243034362793	2582.579833984376	1084.86328125	162.0238494873047	2580.199462890626	1486.603637695313	142.2149505615235	2542.696533203126	1403.52490234375	316.2977600097657	2890.684814453126	22.42298126220704	169.8723297119141	
374	1.865	2703.469482421876	1399.15576171875	168.1628723144532	2764.997070312501	1208.529052734375	190.2703857421876	2724.824218750001	993.7670288085942	329.7753906250001	2772.560791015626	991.122192382813	56.19072723388675	2617.360107421876	739.832214355469	351.679901123047	2556.502685546876	734.9993896484377	339.1482238769532	2563.495117187501	686.9893798828127	324.8556518554689	2437.894287109376	370.6008911132814	263.3457946777345	2378.887695312501	354.0893554687501	256.7117004394532	2392.831054687501	306.2527160644532	249.0237274169923	2312.489257812501	12.54611778259278	221.896209716797	2377.252197265626	23.51752281188966	183.2162017822266	2769.151611328126	684.2918090820315	22.1167163848877	2813.587646484376	621.7857666015627	40.70495223999025	2861.871093750001	335.4552001953126	74.70240020751956	2844.673828125001	291.4226684570314	89.4748458862305	2902.081787109376	269.0916442871095	87.0481872558594	3098.842529296877	34.59192276000978	164.2366943359376	3061.342285156251	13.69424533843995	121.2108840942383	2755.329833984376	639.796569824219	41.33290100097658	2191.275146484376	115.359001159668	143.9132232666016	2537.808837890626	1224.633911132813	155.6685333251954	2579.362792968751	1025.595947265625	137.3399200439454	2576.942871093751	1037.800659179688	211.6622772216798	2575.465820312501	1025.676025390625	187.9863433837891	2587.716796875001	1037.090454101563	111.8331298828126	2590.145263671876	1085.224975585938	162.8718872070313	2587.163818359376	1486.745727539063	141.979721069336	2549.593261718751	1403.858764648438	316.0333251953126	2891.544433593751	23.1756763458252	169.6875610351563	
375	1.87	2710.560302734376	1399.639404296875	168.0260772705079	2772.526367187501	1209.2314453125	190.3582000732422	2732.922851562501	993.309692382813	329.6051025390626	2779.837158203126	992.2917480468755	56.20475387573245	2625.908203125001	739.1524658203127	351.8365173339845	2565.036865234376	734.297546386719	339.3442382812501	2572.016113281251	686.2810058593752	325.1607666015626	2444.970214843751	370.7237243652345	264.6610107421876	2385.705566406251	355.1276245117189	257.918182373047	2398.923095703126	307.0400695800782	250.5142669677736	2312.784667968751	12.82349872589112	222.0855102539064	2377.138916015626	23.46301269531251	183.2384185791016	2775.754150390626	685.5135498046877	22.28840255737305	2819.536132812501	622.7195434570315	41.29806900024415	2867.343750000001	336.1424865722657	74.79809570312503	2849.601318359376	292.2071533203126	89.04913330078128	2906.809326171876	269.4435119628907	87.76304626464847	3100.663818359377	32.3611183166504	165.7260742187501	3062.444824218751	12.74768161773682	121.4229965209962	2761.443359375001	640.968688964844	41.03852844238283	2194.633300781251	120.0754699707032	145.7480468750001	2545.368164062501	1224.726684570313	155.9521636962891	2586.814453125001	1026.150756835938	137.9696350097657	2584.726562500001	1038.012573242188	212.3840942382814	2583.131835937501	1025.955932617188	188.6173400878907	2595.067138671876	1037.793212890625	112.4510498046876	2597.657470703126	1085.653930664063	163.7476501464844	2594.130859375001	1486.956176757813	141.7538452148438	2556.514892578126	1404.276611328125	315.7827148437501	2892.341064453126	23.89165878295899	169.5105285644532	
376	1.875	2717.645507812501	1400.18701171875	167.8890228271485	2780.038574218751	1210.00341796875	190.4410247802735	2740.979736328126	992.9107055664067	329.3996887207032	2787.046386718751	993.5667114257817	56.2104301452637	2634.621093750001	738.4510498046877	351.9608459472657	2573.737548828126	733.5136718750002	339.532684326172	2580.742187500001	685.4956054687502	325.4704895019532	2452.414306640626	370.7747497558595	266.0393981933595	2392.904785156251	356.1203002929689	259.1710205078126	2405.377441406251	307.7877502441407	252.0695800781251	2313.179199218751	13.24300193786622	222.2912597656251	2376.998535156251	23.41703033447266	183.235336303711	2782.340820312501	686.8787231445315	22.40955924987794	2825.559814453126	623.8630371093752	41.82766723632814	2872.704345703126	336.9251403808595	74.83481597900393	2854.395019531251	293.1056518554689	88.55987548828128	2911.385742187501	269.8782653808595	88.42572784423831	3102.303710937502	30.57061767578126	167.0363006591797	3063.422607421876	12.09878730773926	121.5367507934571	2767.611328125001	642.2666015625002	40.64173507690431	2198.406982421876	124.9712524414063	147.6867218017579	2552.908203125001	1224.897583007813	156.2535400390626	2594.216308593751	1026.76611328125	138.6194458007813	2592.459716796876	1038.280395507813	213.1273956298829	2590.746337890626	1026.292358398438	189.2655639648438	2602.364501953126	1038.568969726563	113.0940780639649	2605.107177734376	1086.143188476563	164.6461334228516	2601.099121093751	1487.232543945313	141.5386352539063	2563.458007812501	1404.775146484375	315.5473632812501	2893.058105468751	24.54794692993165	169.3530273437501	
